# File created by Blade
# Date/Time:  Wed Jan 21 14:58:10 2015
# Frame Rate: 120.000 fps
#------------------------------------------------------
:FULLY-SPECIFIED
:DEGREES
482
root 16.165511 35.532146 -23.250020 -172.361591 -10.020080 -180.364778
Spine -17.721731 23.781282 -3.039920
Head 13.253931 -3.579283 3.896087
LeftShoulder -7.445825 -29.931859 19.690310
LeftArm -1.834078 1.675889 -6.518528
LeftForeArm 11.501103 -0.000000 -4.131043
LeftHand -10.461626 -0.000000 -3.405590
LeftHandThumb1 -26.253704 0.000000 33.147579
RightShoulder -4.381447 0.435861 -10.123468
RightArm 27.389138 19.300022 15.496144
RightForeArm -36.541555 -0.000000 7.890128
RightHand -4.379171 -0.000000 10.711963
RightHandThumb1 -24.326973 -0.000000 -32.862282
LeftUpLeg -0.190375 5.735551 1.272033
LeftLeg -6.383733 -0.000000 0.000000
LeftFoot -18.587578 23.828502 -13.883626
LeftToeBase 26.792711 -0.000000 -0.000000
RightUpLeg 1.837799 -13.044629 -5.247117
RightLeg -2.902867 -0.000000 0.000000
RightFoot -19.128415 -25.032569 18.846229
RightToeBase 21.237960 -0.000000 -0.000000
483
root 16.169869 35.525373 -23.252222 -172.392230 -9.336298 -180.390527
Spine -17.534603 23.308981 -2.989147
Head 13.133717 -3.935893 3.895521
LeftShoulder -7.643142 -29.953012 19.842683
LeftArm -1.449167 1.745542 -6.639293
LeftForeArm 11.576342 -0.000000 -4.233184
LeftHand -10.716267 -0.000000 -2.961518
LeftHandThumb1 -26.253704 0.000000 33.147579
RightShoulder -4.466527 0.298869 -10.132566
RightArm 27.076633 19.373701 15.350828
RightForeArm -36.413821 -0.000000 7.918335
RightHand -4.363324 -0.000000 10.805852
RightHandThumb1 -24.326973 -0.000000 -32.862282
LeftUpLeg -0.044884 6.278212 1.179735
LeftLeg -6.401389 -0.000000 0.000000
LeftFoot -18.691196 23.960870 -13.916212
LeftToeBase 26.786251 -0.000000 -0.000000
RightUpLeg 1.731490 -12.830718 -5.289940
RightLeg -2.960535 -0.000000 0.000000
RightFoot -19.166593 -24.979817 18.687059
RightToeBase 21.452896 -0.000000 -0.000000
484
root 16.176189 35.518031 -23.254898 -172.448905 -8.639543 -180.405330
Spine -17.338526 22.878978 -2.928942
Head 13.066187 -4.245868 3.947214
LeftShoulder -7.712889 -29.648805 19.889965
LeftArm -1.132360 1.617034 -6.714629
LeftForeArm 11.745983 -0.000000 -4.234354
LeftHand -10.655406 0.000000 -2.838075
LeftHandThumb1 -26.253704 0.000000 33.147579
RightShoulder -4.568480 0.043181 -10.164261
RightArm 26.967310 20.055075 15.567128
RightForeArm -36.957240 -0.000000 7.780693
RightHand -4.340204 -0.000000 10.884500
RightHandThumb1 -24.326973 -0.000000 -32.862282
LeftUpLeg 0.124577 6.853017 1.101014
LeftLeg -6.418174 -0.000000 0.000000
LeftFoot -18.792666 24.078697 -13.938300
LeftToeBase 26.755662 -0.000000 -0.000000
RightUpLeg 1.676722 -12.569874 -5.339049
RightLeg -3.062207 -0.000000 0.000000
RightFoot -19.133311 -24.809506 18.541137
RightToeBase 21.652407 -0.000000 -0.000000
485
root 16.181247 35.509410 -23.259344 -172.466290 -7.923532 -180.425270
Spine -17.161425 22.517258 -2.906634
Head 12.866458 -4.608344 3.986103
LeftShoulder -7.685071 -29.683722 19.960450
LeftArm -1.051299 1.633172 -6.778759
LeftForeArm 11.924147 -0.000000 -4.113010
LeftHand -10.503911 0.000000 -2.757855
LeftHandThumb1 -26.253704 0.000000 33.147579
RightShoulder -4.749237 -0.098755 -10.166211
RightArm 26.549117 19.761967 15.180632
RightForeArm -36.364538 0.000000 7.911410
RightHand -4.275257 -0.000000 10.812171
RightHandThumb1 -24.326973 -0.000000 -32.862282
LeftUpLeg 0.267594 7.420875 1.010928
LeftLeg -6.448301 -0.000000 0.000000
LeftFoot -18.913018 24.218013 -13.967013
LeftToeBase 26.756109 -0.000000 -0.000000
RightUpLeg 1.570900 -12.300178 -5.392719
RightLeg -3.135297 -0.000000 0.000000
RightFoot -19.166102 -24.579202 18.502299
RightToeBase 21.781968 -0.000000 -0.000000
486
root 16.188652 35.503047 -23.260257 -172.503752 -7.208539 -180.425557
Spine -17.003994 22.057110 -2.803449
Head 12.904085 -4.748717 3.995489
LeftShoulder -7.840884 -29.383284 20.045611
LeftArm -0.643313 1.311869 -6.923108
LeftForeArm 12.208088 -0.000000 -4.204486
LeftHand -10.509273 -0.000000 -2.773061
LeftHandThumb1 -26.253704 0.000000 33.147579
RightShoulder -4.730019 -0.385205 -10.187755
RightArm 26.169679 19.840369 14.936720
RightForeArm -36.106963 -0.000000 7.944990
RightHand -4.390595 -0.000000 10.812834
RightHandThumb1 -24.326973 -0.000000 -32.862282
LeftUpLeg 0.407176 7.937559 0.944459
LeftLeg -6.448339 -0.000000 0.000000
LeftFoot -19.041477 24.440749 -14.014641
LeftToeBase 26.653377 -0.000000 -0.000000
RightUpLeg 1.468616 -12.008325 -5.431303
RightLeg -3.189462 -0.000000 0.000000
RightFoot -19.131086 -24.343935 18.396957
RightToeBase 21.904706 -0.000000 -0.000000
